<svg width="143" height="175" viewBox="0 0 143 175" fill="none" xmlns="http://www.w3.org/2000/svg">
<path d="M25 8H79.2422C83.3042 8 87.2321 9.45497 90.3145 12.1006V12.0996L129.072 45.3662C132.835 48.5958 135 53.3079 135 58.2666V150C135 159.389 127.389 167 118 167H25C15.6112 167 8 159.389 8 150V25C8 15.6112 15.6112 8 25 8Z" stroke="#4F6F52" stroke-width="16"/>
<rect x="31" y="130" width="81" height="16" rx="2" fill="#4F6F52"/>
<rect x="31" y="82" width="81" height="16" rx="2" fill="#4F6F52"/>
<rect x="31" y="58" width="53" height="16" rx="2" fill="#4F6F52"/>
<rect x="31" y="106" width="81" height="16" rx="2" fill="#4F6F52"/>
</svg>
